<svg data-v-0dd9719b="" version="1.0" xmlns="http://www.w3.org/2000/svg" xmlns:xlink="http://www.w3.org/1999/xlink" width="100%" height="100%" viewBox="0 0 340.000000 250.000000" preserveAspectRatio="xMidYMid meet" color-interpolation-filters="sRGB" style="margin: auto;"> <rect data-v-0dd9719b="" x="0" y="0" width="100%" height="100%" fill="#fff" fill-opacity="1" class="background"></rect> <rect data-v-0dd9719b="" x="0" y="0" width="100%" height="100%" fill="url(#watermark)" fill-opacity="1" class="watermarklayer"></rect> <g data-v-0dd9719b="" fill="#333" class="icon-text-wrapper icon-svg-group iconsvg" transform="translate(56.1300048828125,94.99699974060059)"><g class="iconsvg-imagesvg" transform="translate(0,0)"><g><rect fill="#333" fill-opacity="0" stroke-width="2" x="0" y="0" width="60" height="60.006000600060005" class="image-rect"></rect> <svg x="0" y="0" width="60" height="60.006000600060005" filtersec="colorsb4492784077" class="image-svg-svg primary" style="overflow: visible;"><svg xmlns="http://www.w3.org/2000/svg" viewBox="0.01964184083044529 -0.03000464104115963 99.9903564453125 100.00001525878906"><path d="M75.74 61.83H62.5a17.53 17.53 0 0 1-26.75-1.37 2.57 2.57 0 0 0 .3-1.17 2.53 2.53 0 1 0-2.53 2.53 2.73 2.73 0 0 0 .5 0A19.68 19.68 0 0 0 63.41 64h9.45a26.79 26.79 0 1 1 0-28h-9.1a19.69 19.69 0 0 0-30.19 2.5 2.53 2.53 0 1 0 2.48 2.5 2.47 2.47 0 0 0-.53-1.53 17.53 17.53 0 0 1 27.29-1.33H98.6a50 50 0 1 0 0 23.66zm-43.45-2.54a1.23 1.23 0 1 1 1.23 1.23 1.24 1.24 0 0 1-1.23-1.23zM34.75 41a1.23 1.23 0 1 1-1.23-1.23A1.23 1.23 0 0 1 34.75 41zM83.6 73.42a3.7 3.7 0 0 1-.95-.14 40 40 0 1 1 0-46.56 3.7 3.7 0 0 1 .95-.14 3.86 3.86 0 1 1-3.27 1.86 37.14 37.14 0 1 0 0 43.12 3.83 3.83 0 1 1 3.27 1.86z" fill="#0080df"></path><path d="M99.87 46.27H58.16a9 9 0 1 0 0 7.46h41.71c.09-1.23.14-2.47.14-3.73s-.01-2.5-.14-3.73zM50 53.73A3.73 3.73 0 1 1 53.73 50 3.73 3.73 0 0 1 50 53.73z" fill="#f6911e"></path><path d="M81.74 30.42a1.87 1.87 0 1 0 1.86-1.87 1.87 1.87 0 0 0-1.86 1.87zM83.6 67.71a1.87 1.87 0 1 0 1.87 1.87 1.87 1.87 0 0 0-1.87-1.87z" fill="#0080df"></path></svg></svg> <!----></g></g> <g transform="translate(67,6.843000411987305)"><g data-gra="path-name" fill-rule="" class="tp-name iconsvg-namesvg"><g transform="scale(1)"><g><path d="M46.98-43.62L46.98 2.7 44.28 2.7 44.28-37.56 26.88 2.7 24.66 2.7 7.32-37.44 7.32 2.7 4.8 2.7 4.8-43.62 7.56-43.62 25.86-1.32 44.1-43.62 46.98-43.62ZM57.06-43.62L59.76-43.62 59.76 2.7 57.06 2.7 57.06-43.62ZM72.54 0.12L93.84 0.12 93.84 2.7 69.9 2.7 69.9-43.62 72.54-43.62 72.54 0.12ZM125.7-41.04L103.68-41.04 103.68-22.98 124.32-22.98 124.32-20.4 103.68-20.4 103.68 0.12 125.7 0.12 125.7 2.7 101.04 2.7 101.04-43.62 125.7-43.62 125.7-41.04ZM162.12 2.7L146.7-18.12 137.04-18.12 137.04 2.7 134.4 2.7 134.4-43.62 150.18-43.62Q155.82-43.62 159.06-40.14 162.3-36.66 162.3-30.84L162.3-30.84Q162.3-25.08 159.06-21.6 155.82-18.12 150.18-18.12L150.18-18.12 149.94-18.12 165.54 2.7 162.12 2.7ZM137.04-41.04L137.04-20.7 150.18-20.7Q154.8-20.7 157.2-23.4 159.6-26.1 159.6-30.84L159.6-30.84Q159.6-35.58 157.17-38.31 154.74-41.04 150.18-41.04L150.18-41.04 137.04-41.04Z" transform="translate(-4.800000190734863, 43.619998931884766)"></path></g> <!----> <!----> <!----> <!----> <!----> <!----> <!----></g></g> <!----></g></g><defs v-gra="od"></defs></svg>